<mxfile host="app.diagrams.net" modified="2024-06-04T00:37:24.021Z" agent="Mozilla/5.0 (Macintosh; Intel Mac OS X 10_15_7) AppleWebKit/537.36 (KHTML, like Gecko) Chrome/125.0.0.0 Safari/537.36" version="24.4.13" etag="WVXyfIyPoIPrd7dB7NYB" type="github">
  <diagram name="第 1 页" id="NMlBrgl6VqmpHr7GDek4">
    <mxGraphModel>
      <root>
        <mxCell id="0" />
        <mxCell id="1" parent="0" />
      </root>
    </mxGraphModel>
  </diagram>
</mxfile>
